<svg width="140" height="140" viewBox="0 0 140 140" fill="none" xmlns="http://www.w3.org/2000/svg">
<path d="M69.9189 4.36332C69.6029 4.37818 69.2939 4.46148 69.0131 4.60731C69.0131 4.60731 43.0344 17.5656 10.6385 21.885C10.1123 21.9577 9.63056 22.2193 9.28309 22.621C8.93561 23.0228 8.74615 23.5371 8.75006 24.0683V69.9888C8.75006 98.1201 24.1515 114.807 39.3366 124.087C54.5217 133.367 69.6753 135.601 69.6753 135.601C69.8906 135.633 70.1095 135.633 70.3248 135.601C70.3248 135.601 85.4784 133.367 100.664 124.087C115.849 114.807 131.25 98.1201 131.25 69.9888V24.0683C131.254 23.5371 131.065 23.0228 130.717 22.621C130.37 22.2193 129.888 21.9577 129.362 21.885C96.9657 17.5656 70.987 4.60731 70.987 4.60731C70.6574 4.43673 70.2898 4.35271 69.9189 4.36332Z" fill="#FF6B6B"/>
<path d="M70 30.6221C48.2797 30.6221 30.6335 48.2681 30.6335 69.9883C30.6335 91.7086 48.2797 109.376 70 109.376C91.7203 109.376 109.366 91.7086 109.366 69.9883C109.366 48.2681 91.7203 30.6221 70 30.6221Z" fill="#DBE9EE"/>
<path d="M63.2195 48.1263C62.6786 48.1795 62.1768 48.432 61.812 48.8348C61.4471 49.2376 61.2452 49.7618 61.2456 50.3053V61.2556H50.3166C49.7365 61.2534 49.1792 61.4818 48.7674 61.8904C48.3556 62.299 48.1229 62.8544 48.1206 63.4345V76.5638C48.1229 77.1439 48.3556 77.6993 48.7674 78.1079C49.1792 78.5165 49.7365 78.7449 50.3166 78.7427H61.2456V89.693C61.2468 89.9806 61.3046 90.2652 61.4158 90.5304C61.5271 90.7957 61.6896 91.0363 61.8939 91.2387C62.0983 91.4411 62.3406 91.6013 62.6069 91.71C62.8732 91.8186 63.1583 91.8736 63.4459 91.872H76.5538C77.134 91.8742 77.6912 91.6458 78.1031 91.2372C78.5149 90.8285 78.7475 90.2732 78.7499 89.693V78.7427H89.6831C90.2632 78.7449 90.8205 78.5165 91.2323 78.1079C91.6442 77.6993 91.8768 77.1439 91.8791 76.5638V63.4345C91.8768 62.8544 91.6442 62.299 91.2323 61.8904C90.8205 61.4818 90.2632 61.2534 89.6831 61.2556H78.7499V50.3053C78.7475 49.7252 78.5149 49.1695 78.1031 48.7609C77.6912 48.3523 77.134 48.1241 76.5538 48.1263H63.4459C63.3705 48.1224 63.2949 48.1224 63.2195 48.1263Z" fill="#FF6B6B"/>
</svg>
