<svg width="132" height="132" viewBox="0 0 132 132" fill="none" xmlns="http://www.w3.org/2000/svg">
<g clip-path="url(#clip0_8_123)">
<path d="M106.394 16.4206H102.719L65.9996 21.7325L29.2802 16.4206H25.0746C20.5401 16.4206 16.8643 12.7448 16.8643 8.21029C16.864 3.67581 20.5401 0 25.0746 0H106.394C110.928 0 114.604 3.67581 114.604 8.21029C114.605 12.7448 110.928 16.4206 106.394 16.4206Z" fill="#B98080"/>
<path d="M106.925 0H98.9573C103.492 0 107.168 3.67581 107.168 8.21029C107.168 12.7448 103.492 16.4206 98.9573 16.4206H106.925C111.46 16.4206 115.135 12.7448 115.135 8.21029C115.136 3.67581 111.46 0 106.925 0Z" fill="#AE6C6C"/>
<path d="M102.188 26.7275V16.4206H29.2805V26.7275C29.2805 42.7162 39.5 56.3162 53.7632 61.3561C55.7318 62.0517 57.0481 63.9122 57.0481 65.9997C57.0481 68.0876 55.7318 69.9481 53.7632 70.6434C39.5003 75.6833 29.2805 89.2833 29.2805 105.272V115.579H102.188V105.272C102.188 89.2833 91.9683 75.6833 77.7051 70.6434C75.7365 69.9478 74.4203 68.0873 74.4203 65.9997H74.9515C74.9515 63.9119 75.7365 62.0517 77.7051 61.3561C91.9683 56.3165 102.188 42.7162 102.188 26.7275Z" fill="#EFEDEF"/>
<path d="M29.2805 16.4206V21.626H89.6499C92.4673 21.626 94.7514 23.9101 94.7514 26.7275C94.7514 42.6665 84.5951 56.2317 70.4016 61.3088C68.6455 61.937 67.3021 63.4362 67.0357 65.2821C66.6939 67.6507 68.0771 69.8689 70.2688 70.6434C84.5317 75.6833 94.7514 89.2835 94.7514 105.272V115.579H102.719V105.272C102.719 89.3329 92.563 75.7677 78.3694 70.6907C76.6133 70.0625 75.2699 68.5632 75.0035 66.7174C74.6617 64.3488 76.0449 62.1306 78.2366 61.3561C92.4995 56.3162 102.719 42.716 102.719 26.7275V21.6262V16.4206H29.2805Z" fill="#D7D0D6"/>
<path d="M106.394 132H25.0746C20.5401 132 16.8643 128.324 16.8643 123.79C16.8643 119.255 20.5401 115.579 25.0746 115.579H29.2808L66.0001 110.268L102.719 115.579H106.395C110.929 115.579 114.605 119.255 114.605 123.79C114.605 128.324 110.928 132 106.394 132Z" fill="#B98080"/>
<path d="M106.925 115.579H98.9573C103.492 115.579 107.168 119.255 107.168 123.79C107.168 128.324 103.492 132 98.9573 132H106.925C111.46 132 115.135 128.324 115.135 123.79C115.136 119.255 111.46 115.579 106.925 115.579Z" fill="#AE6C6C"/>
<path d="M83.6818 86.7739H79.8144C75.9254 86.7739 72.0761 83.9605 71.44 80.124L69.8621 70.607C69.059 65.7631 72.7953 61.3563 77.7054 61.3563C87.2335 57.9897 94.9514 50.7995 99.0296 41.6326H32.4389C36.5169 50.7998 44.235 57.9897 53.7632 61.3563C58.6732 61.3563 62.4096 65.7631 61.6064 70.607L60.0285 80.124C59.3924 83.9605 56.0741 86.7739 52.1853 86.7739H47.7868C37.648 86.7739 29.336 94.9316 29.2813 105.07C29.281 105.138 29.2808 105.205 29.2808 105.272V115.579H102.188V105.272C102.188 105.205 102.188 105.138 102.188 105.07C102.133 94.9316 93.8205 86.7739 83.6818 86.7739Z" fill="#FED402"/>
<path d="M102.719 105.07C102.664 94.9316 94.3519 86.7739 84.2131 86.7739H79.8144C75.9253 86.7739 72.6072 83.9605 71.9711 80.124L70.3932 70.607C69.5901 65.7631 73.3265 61.3563 78.2365 61.3563C87.7646 57.9897 95.4825 50.7995 99.5607 41.6326H91.5929C87.515 50.7998 79.7968 57.9897 70.2687 61.3563C65.3586 61.3563 61.6223 65.7631 62.4254 70.607L64.0033 80.124C64.6394 83.9605 67.9577 86.7739 71.8466 86.7739H76.2453C86.3841 86.7739 94.6961 94.9316 94.7508 105.07C94.7511 105.138 94.7514 105.205 94.7514 105.272V115.579H102.719V105.272C102.719 105.205 102.719 105.138 102.719 105.07Z" fill="#FAC600"/>
</g>
<defs>
<clipPath id="clip0_8_123">
<rect width="132" height="132" fill="white"/>
</clipPath>
</defs>
</svg>
